<svg xmlns="http://www.w3.org/2000/svg" width="200" height="78" viewBox="0 0 200 78" fill="none">
<path d="M28.7254 57.3981V75.2149C28.7254 75.9391 28.0736 76.3375 26.8785 76.4099V77.1342H40.4222V76.4099C39.2272 76.3013 38.5753 75.9391 38.5753 75.2149V57.3981C38.7564 54.2475 37.9235 51.097 36.2577 48.4172C34.6643 46.0996 32.4553 44.4338 29.848 43.4923C26.8785 42.4783 23.6194 41.8989 20.4688 42.0076C17.3183 41.8989 14.1678 42.4783 11.1983 43.4923C8.59098 44.4338 6.38199 46.172 4.78862 48.4172C3.12282 51.097 2.28993 54.2475 2.36235 57.3981V65.8357H12.2123V57.3981C12.2123 54.9718 12.9365 53.1249 14.3489 52.0023C15.7612 50.8797 17.7891 50.2279 20.4688 50.2279C25.937 50.2641 28.7254 52.6904 28.7254 57.3981Z" fill="orange"/>
<path fill-rule="evenodd" clip-rule="evenodd" d="M12.036 14.8113L19.6407 16.1874C19.6407 16.2236 13.5207 21.5832 12.036 14.8113Z" fill="orange"/>
<path fill-rule="evenodd" clip-rule="evenodd" d="M31.8032 14.8113L24.1985 16.1874C24.1985 16.2236 30.2098 21.5832 31.8032 14.8113Z" fill="orange"/>
<path d="M15.4759 10.1765H35.2482V0.326627H15.4759C12.3254 0.145562 9.17488 0.978426 6.49511 2.64422C4.17748 4.23759 2.40305 6.44661 1.49772 9.05395C0.483758 12.1321 -0.0956462 15.2826 0.0129927 18.4331C-0.0956462 21.5837 0.483758 24.8428 1.49772 27.8123C2.43926 30.4196 4.17748 32.6286 6.49511 34.222C9.17488 35.8878 12.3254 36.7207 15.4759 36.5396H35.2482V26.6897H15.4759C12.9772 26.6897 11.2028 25.9654 10.0802 24.5531C8.9576 23.177 8.30576 21.1129 8.30576 18.4331C8.34198 12.965 10.6596 10.1765 15.4759 10.1765Z" fill="orange"/>
<path d="M54.1492 9.52563C56.7566 9.52563 59.3277 9.99644 61.754 11.0104C64.0716 11.9519 66.0995 13.5091 67.5843 15.5732C69.1776 17.7822 70.0105 20.3895 69.9019 23.0693C70.0105 25.7491 69.1776 28.3564 67.5843 30.5654C66.0995 32.5933 63.963 34.1867 61.6453 35.1282C56.829 37.0837 51.4333 37.0837 46.6169 35.1282C44.1907 34.1867 42.1627 32.6296 40.5694 30.5654C38.976 28.4288 38.1431 25.7491 38.2517 23.0693C38.1431 20.3895 38.976 17.6736 40.5694 15.5732C42.0541 13.5453 44.082 11.9519 46.5083 11.0104C48.9708 10.1051 51.5419 9.52563 54.1492 9.52563ZM54.1492 15.9354C52.7732 15.9354 51.2884 16.225 49.9848 16.7682C48.7897 17.3114 47.7758 18.1443 47.0153 19.2669C46.291 20.3895 45.8927 21.6932 45.8927 22.9607C45.784 24.9886 46.7256 26.9441 48.2103 28.1391C49.8761 29.4428 51.904 30.1671 53.9682 30.0946C55.3443 30.0946 56.829 29.8049 58.0602 29.1531C59.2553 28.6099 60.2692 27.777 60.9211 26.6544C61.6453 25.5318 62.0437 24.2281 62.0437 22.9607C62.0437 21.9467 61.8626 20.9327 61.3918 19.9912C61.0297 19.1583 60.3779 18.3254 59.726 17.6736C59.0018 17.0217 58.0602 16.551 57.1187 16.2975C56.2858 16.1164 55.2718 15.9354 54.1492 15.9354ZM77.4342 34.4764V9.99642H93.6576C96.0839 9.88778 98.4739 10.5396 100.611 11.7709C102.385 12.8935 103.87 14.5593 104.703 16.5148C105.644 18.6513 106.006 20.8603 106.006 23.1055C106.006 25.4231 105.644 27.6684 104.703 29.6963C103.87 31.6518 102.494 33.3176 100.611 34.4402C98.4739 35.6352 96.0477 36.2871 93.6576 36.2146H77.4342C77.4342 36.2508 77.4342 34.4764 77.4342 34.4764ZM85.4011 15.6456V30.493H89.6742C90.9779 30.493 92.354 30.3843 93.6576 30.1308C94.5992 29.9498 95.5045 29.479 96.2649 28.8272C96.9892 28.1753 97.46 27.4511 97.8583 26.5095C98.2204 25.3869 98.4015 24.1919 98.3291 22.9969C98.3291 20.3171 97.6773 18.4341 96.3012 17.3477C94.9251 16.2613 92.7885 15.5732 89.7104 15.5732H85.4373V15.6456H85.4011ZM114.335 9.92401H122.23V36.287H114.335V9.92401ZM187.63 21.8743H199.979V33.2089C199.508 33.4986 198.965 33.6797 198.386 33.8608C197.191 34.3316 195.778 34.8023 194.293 35.2369C192.809 35.7076 191.324 35.9611 189.839 36.2508C188.355 36.5405 186.978 36.613 185.494 36.613C182.705 36.7216 179.917 36.1422 177.346 35.2369C175.137 34.2953 173.181 32.7382 171.878 30.7827C170.502 28.4651 169.85 25.8577 169.922 23.178C169.922 21.15 170.284 19.0859 171.226 17.239C172.059 15.5732 173.181 14.0885 174.666 12.9659C176.151 11.8433 177.817 11.0104 179.663 10.4672C181.619 9.92401 183.574 9.63429 185.602 9.63429C188.101 9.63429 190.6 9.92399 193.026 10.5758C193.497 10.6845 194.221 10.8655 195.163 11.119L195.887 11.3001L197.915 12.0243L195.706 17.4925C193.859 16.9493 191.795 16.1164 190.057 15.7181C189.043 15.4284 187.92 15.356 186.797 15.356C184.48 15.2473 182.162 15.8991 180.207 17.3114C178.613 18.6151 177.78 20.5706 177.78 23.2504C177.78 25.9301 178.613 27.9943 180.279 29.3704C182.235 30.7465 184.552 31.5069 186.942 31.3983C188.898 31.3983 190.853 31.1086 192.7 30.4568V26.5457H185.928V21.9829L187.63 21.8743Z" fill="orange"/>
<path d="M153.957 20.8585V35.054C153.957 35.5971 153.486 35.9955 152.472 35.9955V36.5387H163.227V35.8869C162.286 35.7782 161.743 35.5247 161.743 34.9453V20.8585C161.851 18.3598 161.199 15.8611 159.896 13.7245C158.701 11.8777 156.818 10.4654 154.79 9.74111C149.973 8.14774 144.686 8.14774 139.87 9.74111C137.842 10.4654 135.959 11.8777 134.764 13.7245C133.46 15.8611 132.808 18.3598 132.917 20.8585V27.3406H140.812V20.8585C140.703 19.2651 141.282 17.5993 142.477 16.5129C143.853 15.499 145.628 15.0282 147.402 15.1368C151.748 15.2092 153.957 17.0561 153.957 20.8585Z" fill="orange"/>
<path d="M45.4219 41.8989H53.1353V43.5647V43.6734V65.7633V65.8357V67.5015H45.4219V65.8357V65.7633V43.6734V43.5647V41.8989Z" fill="orange"/>
<path d="M83.2636 52.4743V66.3077C83.2636 66.8509 82.7929 67.1406 81.7789 67.2492V67.7924H92.2444V67.2492C91.3029 67.1406 90.8684 66.8871 90.8684 66.3077V52.4743C90.977 49.9756 90.3252 47.5493 89.0215 45.5214C87.8265 43.747 86.1607 42.3709 84.0965 41.6104C79.3526 40.0171 74.2466 40.0171 69.5389 41.6104C67.511 42.3347 65.8452 43.6383 64.6139 45.5214C63.3103 47.5493 62.6584 50.0843 62.7671 52.4743V58.7754H70.4805V52.4743C70.3718 50.881 70.9512 49.3238 72.1462 48.3098C73.5223 47.2959 75.2244 46.8251 76.9626 46.9337C81.1271 47.0062 83.2636 48.8892 83.2636 52.4743Z" fill="orange"/>
<path d="M102.021 66.126L103.795 60.2957C106.294 61.3097 107.235 61.9615 110.205 61.9615C111.327 62.0702 112.341 61.7805 113.283 61.2373C114.007 60.5854 114.405 59.5715 114.297 58.5575V41.9357H122.01V59.1007C122.119 60.5854 121.829 61.9615 121.177 63.2652C120.634 64.3878 119.874 65.2207 118.86 65.945C117.737 66.5968 116.651 67.14 115.347 67.3211C113.754 67.6108 112.196 67.7918 110.603 67.7918C107.561 67.7918 104.881 66.8503 102.021 66.126Z" fill="orange"/>
<path d="M142.365 58.1603H151.925L147.109 46.7532L142.365 58.1603ZM163.694 67.5033H156.198L153.989 62.3248H140.627L138.418 67.5033H131.755C135.376 58.957 139.178 50.447 142.981 42.0093H152.36C155.909 50.5556 159.892 58.9932 163.694 67.5033Z" fill="orange"/>
<path d="M173.435 65.1841L175.21 60.0781C177.527 60.911 179.953 61.5628 182.452 62.106C184.118 62.3957 185.784 62.5768 187.45 62.5768C188.645 62.5768 189.876 62.3957 190.962 62.106C191.976 61.925 192.628 61.0921 192.628 60.1505C192.628 59.209 191.505 58.4847 189.188 58.1226C186.87 57.7605 184.625 57.3983 182.307 57C180.171 56.7103 178.215 56.0585 176.368 55.0445C174.703 54.0305 173.689 52.2561 173.87 50.3006C173.87 48.9245 174.34 47.5122 175.173 46.3172C176.296 44.8324 177.672 43.7098 179.338 42.9856C181.655 42.044 184.082 41.6095 186.58 41.6819C187.775 41.6819 189.079 41.7905 190.274 41.863C191.469 41.9716 192.411 42.1527 193.244 42.3337C195.453 42.8045 197.336 43.2753 199.472 43.8185L196.865 49.2142L194.728 48.2726H194.62H194.511C194.149 48.0916 193.678 47.983 193.026 47.8019C191.252 47.2587 189.514 46.969 187.739 46.969C183.394 46.969 181.148 47.8019 181.148 49.5763C181.148 50.5179 182.162 51.0611 184.299 51.4232C186.436 51.7853 188.645 52.1474 191.179 52.5458C193.388 52.8355 195.525 53.4873 197.48 54.5737C199.146 55.5877 200.16 57.5432 199.979 59.4987C199.979 61.9249 198.784 64.134 196.829 65.5463C191.795 69.2038 178.36 67.719 173.435 65.1841Z" fill="orange"/>
</svg>