<svg xmlns="http://www.w3.org/2000/svg" viewBox="0 0 841.9 595.3" width="1000" height="100">
        <polyline transform="translate(0, 28) scale(1,-1)" points="0,1 3,1 6,1 9,1 12,1 15,1 18,1 21,1 24,1 27,1 30,1 33,1 36,1 39,1 42,1 45,1 48,1 51,1 54,1 57,1 60,1 63,1 66,9 69,1 72,1 75,1 78,1 81,1 84,1 87,1 90,1 93,1 96,1 99,1 102,1 105,1 108,1 111,1 114,1 117,1 120,1 123,1 126,1 129,1 132,1 135,1 138,1 141,1 144,1 147,1 150,1 153,1 " fill="transparent" stroke="#8cc665" stroke-width="2">
        </polyline>
</svg>